<svg width="25" height="25" viewBox="0 0 25 25" fill="none" xmlns="http://www.w3.org/2000/svg">
<g clip-path="url(#clip0_745_804)">
<path d="M22.8218 7.27596C22.703 6.80137 22.4611 6.36653 22.1205 6.01536C21.7798 5.6642 21.3526 5.40914 20.8818 5.27596C19.1618 4.85596 12.2818 4.85596 12.2818 4.85596C12.2818 4.85596 5.40182 4.85596 3.68182 5.31596C3.21107 5.44914 2.7838 5.7042 2.44317 6.05536C2.10254 6.40653 1.86061 6.84137 1.74182 7.31596C1.42704 9.06151 1.27306 10.8323 1.28182 12.606C1.2706 14.393 1.42459 16.1773 1.74182 17.936C1.87278 18.3958 2.12013 18.8141 2.45997 19.1504C2.7998 19.4868 3.22064 19.7298 3.68182 19.856C5.40182 20.316 12.2818 20.316 12.2818 20.316C12.2818 20.316 19.1618 20.316 20.8818 19.856C21.3526 19.7228 21.7798 19.4677 22.1205 19.1166C22.4611 18.7654 22.703 18.3305 22.8218 17.856C23.1342 16.1235 23.2881 14.3663 23.2818 12.606C23.293 10.8189 23.1391 9.03466 22.8218 7.27596Z" stroke="black" stroke-width="2" stroke-linecap="round" stroke-linejoin="round"/>
<path d="M10.0312 15.8759L15.7812 12.6059L10.0312 9.33594V15.8759Z" stroke="black" stroke-width="2" stroke-linecap="round" stroke-linejoin="round"/>
</g>
<defs>
<clipPath id="clip0_745_804">
<rect width="24" height="24" fill="white" transform="translate(0.28125 0.855957)"/>
</clipPath>
</defs>
</svg>
